<svg width="281" height="64" viewBox="0 0 281 64" fill="none" xmlns="http://www.w3.org/2000/svg">
<rect width="281" height="64" rx="3" fill="#DC3545"/>
<path d="M74.6391 40V23.9H77.6291V37.47H86.0471V40H74.6391ZM93.7923 40.161C92.4276 40.161 91.2316 39.8927 90.2043 39.356C89.1923 38.804 88.4026 38.0527 87.8353 37.102C87.2833 36.1513 87.0073 35.0703 87.0073 33.859C87.0073 32.6323 87.2756 31.5513 87.8123 30.616C88.3643 29.6653 89.1156 28.9217 90.0663 28.385C91.0323 27.8483 92.1286 27.58 93.3553 27.58C94.5513 27.58 95.617 27.8407 96.5523 28.362C97.4876 28.8833 98.2236 29.6193 98.7603 30.57C99.297 31.5207 99.5653 32.64 99.5653 33.928C99.5653 34.0507 99.5576 34.1887 99.5423 34.342C99.5423 34.4953 99.5346 34.641 99.5193 34.779H89.2843V32.87H98.0013L96.8743 33.468C96.8896 32.7627 96.744 32.1417 96.4373 31.605C96.1306 31.0683 95.709 30.6467 95.1723 30.34C94.651 30.0333 94.0453 29.88 93.3553 29.88C92.65 29.88 92.029 30.0333 91.4923 30.34C90.971 30.6467 90.557 31.076 90.2503 31.628C89.959 32.1647 89.8133 32.801 89.8133 33.537V33.997C89.8133 34.733 89.982 35.3847 90.3193 35.952C90.6566 36.5193 91.132 36.9563 91.7453 37.263C92.3586 37.5697 93.064 37.723 93.8613 37.723C94.5513 37.723 95.1723 37.6157 95.7243 37.401C96.2763 37.1863 96.767 36.849 97.1963 36.389L98.7373 38.16C98.1853 38.804 97.4876 39.3023 96.6443 39.655C95.8163 39.9923 94.8656 40.161 93.7923 40.161ZM109.557 40V37.516L109.396 36.987V32.64C109.396 31.7967 109.143 31.145 108.637 30.685C108.131 30.2097 107.364 29.972 106.337 29.972C105.647 29.972 104.965 30.0793 104.29 30.294C103.631 30.5087 103.071 30.8077 102.611 31.191L101.484 29.098C102.143 28.592 102.925 28.2163 103.83 27.971C104.75 27.7103 105.701 27.58 106.682 27.58C108.461 27.58 109.833 28.0093 110.799 28.868C111.78 29.7113 112.271 31.0223 112.271 32.801V40H109.557ZM105.693 40.161C104.773 40.161 103.968 40.0077 103.278 39.701C102.588 39.379 102.051 38.942 101.668 38.39C101.3 37.8227 101.116 37.1863 101.116 36.481C101.116 35.791 101.277 35.17 101.599 34.618C101.936 34.066 102.481 33.629 103.232 33.307C103.983 32.985 104.98 32.824 106.222 32.824H109.787V34.733H106.429C105.448 34.733 104.788 34.894 104.451 35.216C104.114 35.5227 103.945 35.906 103.945 36.366C103.945 36.8873 104.152 37.3013 104.566 37.608C104.98 37.9147 105.555 38.068 106.291 38.068C106.996 38.068 107.625 37.907 108.177 37.585C108.744 37.263 109.151 36.7877 109.396 36.159L109.879 37.884C109.603 38.6047 109.105 39.1643 108.384 39.563C107.679 39.9617 106.782 40.161 105.693 40.161ZM115.961 40V27.718H118.698V31.099L118.376 30.11C118.744 29.282 119.319 28.6533 120.101 28.224C120.898 27.7947 121.887 27.58 123.068 27.58V30.317C122.945 30.2863 122.83 30.271 122.723 30.271C122.615 30.2557 122.508 30.248 122.401 30.248C121.312 30.248 120.446 30.57 119.802 31.214C119.158 31.8427 118.836 32.7857 118.836 34.043V40H115.961ZM132.476 27.58C133.457 27.58 134.331 27.7717 135.098 28.155C135.88 28.5383 136.493 29.1287 136.938 29.926C137.382 30.708 137.605 31.72 137.605 32.962V40H134.73V33.33C134.73 32.2413 134.469 31.4287 133.948 30.892C133.442 30.3553 132.729 30.087 131.809 30.087C131.134 30.087 130.536 30.225 130.015 30.501C129.493 30.777 129.087 31.191 128.796 31.743C128.52 32.2797 128.382 32.962 128.382 33.79V40H125.507V27.718H128.244V31.03L127.761 30.018C128.19 29.236 128.811 28.638 129.624 28.224C130.452 27.7947 131.402 27.58 132.476 27.58ZM163.11 27.58C164.092 27.58 164.958 27.7717 165.709 28.155C166.476 28.5383 167.074 29.1287 167.503 29.926C167.933 30.708 168.147 31.72 168.147 32.962V40H165.272V33.33C165.272 32.2413 165.035 31.4287 164.559 30.892C164.084 30.3553 163.402 30.087 162.512 30.087C161.884 30.087 161.324 30.225 160.833 30.501C160.358 30.777 159.982 31.1833 159.706 31.72C159.446 32.2567 159.315 32.939 159.315 33.767V40H156.44V33.33C156.44 32.2413 156.203 31.4287 155.727 30.892C155.252 30.3553 154.57 30.087 153.68 30.087C153.052 30.087 152.492 30.225 152.001 30.501C151.526 30.777 151.15 31.1833 150.874 31.72C150.614 32.2567 150.483 32.939 150.483 33.767V40H147.608V27.718H150.345V30.984L149.862 30.018C150.276 29.2207 150.874 28.615 151.656 28.201C152.454 27.787 153.358 27.58 154.37 27.58C155.52 27.58 156.517 27.8637 157.36 28.431C158.219 28.9983 158.786 29.857 159.062 31.007L157.935 30.616C158.334 29.696 158.993 28.96 159.913 28.408C160.833 27.856 161.899 27.58 163.11 27.58ZM177.364 40.161C176.106 40.161 174.987 39.8927 174.006 39.356C173.024 38.804 172.25 38.0527 171.683 37.102C171.115 36.1513 170.832 35.0703 170.832 33.859C170.832 32.6323 171.115 31.5513 171.683 30.616C172.25 29.6653 173.024 28.9217 174.006 28.385C174.987 27.8483 176.106 27.58 177.364 27.58C178.636 27.58 179.763 27.8483 180.745 28.385C181.741 28.9217 182.516 29.6577 183.068 30.593C183.635 31.5283 183.919 32.617 183.919 33.859C183.919 35.0703 183.635 36.1513 183.068 37.102C182.516 38.0527 181.741 38.804 180.745 39.356C179.763 39.8927 178.636 40.161 177.364 40.161ZM177.364 37.7C178.069 37.7 178.698 37.5467 179.25 37.24C179.802 36.9333 180.231 36.4887 180.538 35.906C180.86 35.3233 181.021 34.641 181.021 33.859C181.021 33.0617 180.86 32.3793 180.538 31.812C180.231 31.2293 179.802 30.7847 179.25 30.478C178.698 30.1713 178.077 30.018 177.387 30.018C176.681 30.018 176.053 30.1713 175.501 30.478C174.964 30.7847 174.535 31.2293 174.213 31.812C173.891 32.3793 173.73 33.0617 173.73 33.859C173.73 34.641 173.891 35.3233 174.213 35.906C174.535 36.4887 174.964 36.9333 175.501 37.24C176.053 37.5467 176.674 37.7 177.364 37.7ZM186.668 40V27.718H189.405V31.099L189.083 30.11C189.451 29.282 190.026 28.6533 190.808 28.224C191.605 27.7947 192.594 27.58 193.775 27.58V30.317C193.652 30.2863 193.537 30.271 193.43 30.271C193.322 30.2557 193.215 30.248 193.108 30.248C192.019 30.248 191.153 30.57 190.509 31.214C189.865 31.8427 189.543 32.7857 189.543 34.043V40H186.668ZM201.874 40.161C200.51 40.161 199.314 39.8927 198.286 39.356C197.274 38.804 196.485 38.0527 195.917 37.102C195.365 36.1513 195.089 35.0703 195.089 33.859C195.089 32.6323 195.358 31.5513 195.894 30.616C196.446 29.6653 197.198 28.9217 198.148 28.385C199.114 27.8483 200.211 27.58 201.437 27.58C202.633 27.58 203.699 27.8407 204.634 28.362C205.57 28.8833 206.306 29.6193 206.842 30.57C207.379 31.5207 207.647 32.64 207.647 33.928C207.647 34.0507 207.64 34.1887 207.624 34.342C207.624 34.4953 207.617 34.641 207.601 34.779H197.366V32.87H206.083L204.956 33.468C204.972 32.7627 204.826 32.1417 204.519 31.605C204.213 31.0683 203.791 30.6467 203.254 30.34C202.733 30.0333 202.127 29.88 201.437 29.88C200.732 29.88 200.111 30.0333 199.574 30.34C199.053 30.6467 198.639 31.076 198.332 31.628C198.041 32.1647 197.895 32.801 197.895 33.537V33.997C197.895 34.733 198.064 35.3847 198.401 35.952C198.739 36.5193 199.214 36.9563 199.827 37.263C200.441 37.5697 201.146 37.723 201.943 37.723C202.633 37.723 203.254 37.6157 203.806 37.401C204.358 37.1863 204.849 36.849 205.278 36.389L206.819 38.16C206.267 38.804 205.57 39.3023 204.726 39.655C203.898 39.9923 202.948 40.161 201.874 40.161Z" fill="white"/>
</svg>
